# Blender v2.79 (sub 0) OBJ File: 'Track.blend'
# www.blender.org
mtllib Small 1.mtl
o Icosphere.059
v 17.235430 5.676160 -6.382386
v 17.793299 6.814930 -5.977074
v 17.078667 6.906061 -5.899925
v 16.447390 6.765697 -6.382386
v 16.797388 6.595826 -7.435792
v 18.474270 6.394083 -7.282443
v 17.867744 8.182848 -4.436245
v 16.403889 7.446965 -5.773340
v 16.331430 7.718426 -7.039171
v 17.525377 7.628882 -7.274770
v 17.851397 7.429293 -6.251105
v 17.235430 7.871941 -6.382386
vt 0.591233 0.000000
vt 0.671749 0.227286
vt 0.528914 0.240926
vt 0.292805 0.379384
vt 0.379967 0.587368
vt 0.105903 0.604842
vt 0.399074 0.153371
vt 0.260249 0.604842
vt 0.190093 0.845027
vt 0.000000 0.729893
vt 1.000000 0.556066
vt 0.949652 0.834918
vt 0.671749 0.644197
vt 0.175581 0.313129
vt 0.671749 0.619649
vt 0.379967 0.328625
vt 0.001766 0.976792
vt 0.773689 0.867486
vt 0.379967 0.000000
vt 0.260249 1.000000
vt 1.000000 0.952763
vt 0.000000 0.382023
vt 0.961985 0.000000
vt 0.961985 0.354513
vt 0.868618 0.388964
vt 0.671749 0.292819
vt 0.700970 0.534979
vt 0.932842 0.556066
vn 0.0549 -0.3586 0.9319
vn 0.6786 -0.5178 0.5209
vn -0.5110 -0.3696 0.7761
vn -0.7982 -0.5773 -0.1721
vn -0.0320 -0.7595 -0.6498
vn 0.8953 0.1081 0.4322
vn -0.0235 -0.7470 0.6644
vn -0.3781 -0.6303 0.6781
vn -0.9210 -0.2907 -0.2591
vn 0.1007 0.0836 -0.9914
vn 0.9962 -0.0829 0.0254
vn -0.3501 -0.6042 0.7158
vn -0.9947 -0.0960 0.0363
vn -0.1674 0.2659 -0.9493
vn 0.7855 0.6045 -0.1323
vn 0.5974 0.7387 -0.3121
vn -0.4524 0.8918 0.0045
vn -0.3141 0.9244 0.2162
vn 0.0219 0.9664 -0.2561
vn 0.5874 0.8087 -0.0294
usemtl Material.002
s off
f 1/1/1 2/2/1 3/3/1
f 2/4/2 1/5/2 6/6/2
f 1/1/3 3/3/3 4/7/3
f 1/8/4 4/9/4 5/10/4
f 1/11/5 5/12/5 6/13/5
f 2/4/6 6/6/6 11/14/6
f 3/3/7 2/2/7 7/15/7
f 4/7/8 3/3/8 8/16/8
f 5/10/9 4/9/9 9/17/9
f 6/13/10 5/12/10 10/18/10
f 2/4/11 11/14/11 7/19/11
f 3/3/12 7/15/12 8/16/12
f 4/9/13 8/20/13 9/17/13
f 5/12/14 9/21/14 10/18/14
f 6/6/15 10/22/15 11/14/15
f 7/23/16 11/24/16 12/25/16
f 8/26/17 7/23/17 12/25/17
f 9/27/18 8/26/18 12/25/18
f 10/28/19 9/27/19 12/25/19
f 11/24/20 10/28/20 12/25/20
