# Blender v2.79 (sub 0) OBJ File: 'Track.blend'
# www.blender.org
mtllib Small 5.mtl
o Icosphere.003_Icosphere.060
v 22.891487 4.819616 -11.541385
v 22.444412 4.832640 -11.277974
v 22.906523 4.932842 -10.906944
v 23.267225 4.702651 -11.479926
v 22.826353 4.659415 -11.623171
v 22.603619 5.008132 -11.918754
v 22.468670 4.533015 -11.062863
v 22.949083 4.401225 -11.185209
v 23.047886 4.489752 -11.737744
v 22.584005 4.523454 -11.872861
v 22.186218 4.604773 -11.531194
v 22.525452 4.071181 -11.473723
vn -0.0736 0.9821 -0.1735
vn 0.2074 0.9292 0.3060
vn 0.3185 0.9318 -0.1739
vn 0.2574 0.3543 -0.8990
vn 0.7924 -0.0108 -0.6099
vn -0.6789 0.7335 0.0322
vn -0.6213 0.4232 0.6595
vn 0.7734 -0.2443 0.5850
vn 0.1620 0.6888 -0.7066
vn 0.7393 -0.0931 -0.6669
vn -0.7913 0.3130 0.5252
vn 0.1005 -0.4551 0.8848
vn 0.6916 -0.7222 0.0080
vn 0.2377 0.7374 -0.6323
vn -0.6562 -0.0448 -0.7533
vn -0.7903 -0.4587 0.4063
vn 0.0082 -0.6641 0.7476
vn 0.6207 -0.7839 -0.0146
vn 0.1641 -0.6646 -0.7290
vn -0.6292 -0.4669 -0.6214
usemtl Material.002
s off
f 1//1 2//1 3//1
f 2//2 1//2 6//2
f 1//3 3//3 4//3
f 1//4 4//4 5//4
f 1//5 5//5 6//5
f 2//6 6//6 11//6
f 3//7 2//7 7//7
f 4//8 3//8 8//8
f 5//9 4//9 9//9
f 6//10 5//10 10//10
f 2//11 11//11 7//11
f 3//12 7//12 8//12
f 4//13 8//13 9//13
f 5//14 9//14 10//14
f 6//15 10//15 11//15
f 7//16 11//16 12//16
f 8//17 7//17 12//17
f 9//18 8//18 12//18
f 10//19 9//19 12//19
f 11//20 10//20 12//20
