# Blender v2.79 (sub 0) OBJ File: 'Track.blend'
# www.blender.org
mtllib Small 4.mtl
o Icosphere.002_Icosphere.052
v 14.093718 4.421993 -11.572884
v 14.684579 4.092681 -11.143604
v 14.010065 4.322490 -11.315424
v 13.667333 4.244656 -11.572884
v 13.991859 4.293032 -11.886377
v 14.245038 4.364322 -11.682823
v 14.254080 4.717324 -11.079321
v 13.786963 4.605803 -11.287870
v 13.946444 4.548871 -11.679883
v 14.144548 4.540097 -11.729324
v 14.626306 4.776766 -11.502577
v 14.093718 5.119018 -11.572884
vn -0.1992 -0.8906 -0.4089
vn -0.4223 -0.8999 -0.1091
vn 0.3741 -0.8994 -0.2261
vn 0.3721 -0.8947 0.2471
vn -0.0609 -0.9160 0.3966
vn 0.6567 -0.3058 -0.6894
vn -0.3353 -0.3222 0.8853
vn -0.4711 -0.4450 0.7616
vn -0.6689 0.3914 -0.6320
vn 0.5981 0.1328 -0.7904
vn 0.6631 0.3913 0.6381
vn -0.3162 -0.3353 0.8875
vn -0.7439 0.5481 -0.3823
vn -0.1684 0.6008 -0.7814
vn 0.4246 0.0032 -0.9054
vn 0.4273 0.7642 0.4831
vn -0.4382 0.6222 0.6487
vn -0.8681 0.2987 -0.3965
vn -0.2255 0.2357 -0.9453
vn 0.2964 0.2733 -0.9151
usemtl Material.002
s off
f 1//1 2//1 3//1
f 2//2 1//2 6//2
f 1//3 3//3 4//3
f 1//4 4//4 5//4
f 1//5 5//5 6//5
f 2//6 6//6 11//6
f 3//7 2//7 7//7
f 4//8 3//8 8//8
f 5//9 4//9 9//9
f 6//10 5//10 10//10
f 2//11 11//11 7//11
f 3//12 7//12 8//12
f 4//13 8//13 9//13
f 5//14 9//14 10//14
f 6//15 10//15 11//15
f 7//16 11//16 12//16
f 8//17 7//17 12//17
f 9//18 8//18 12//18
f 10//19 9//19 12//19
f 11//20 10//20 12//20
