# Blender v2.79 (sub 0) OBJ File: 'Track.blend'
# www.blender.org
mtllib Small 3.mtl
o Icosphere.000_Icosphere.055
v 14.287895 9.042256 -11.509212
v 14.680099 9.395991 -11.224264
v 14.075952 9.295448 -10.856895
v 13.525285 9.257087 -11.509212
v 14.148577 9.412957 -11.938003
v 14.269056 9.477973 -11.624249
v 14.385316 9.796021 -11.209378
v 13.832178 9.920033 -11.178119
v 13.971825 9.833730 -11.738849
v 14.417397 9.847931 -11.907790
v 14.648095 9.818486 -11.509212
v 14.287895 10.033978 -11.509212
vn 0.4022 -0.8019 0.4419
vn 0.6714 -0.1619 -0.7232
vn -0.2607 -0.9256 0.2745
vn -0.2175 -0.7722 -0.5969
vn 0.9358 -0.0516 -0.3487
vn 0.5880 -0.4212 -0.6906
vn 0.4570 0.3057 0.8353
vn -0.7647 0.0326 0.6436
vn -0.5842 0.1335 -0.8006
vn 0.8370 -0.5022 -0.2173
vn 0.6514 0.4575 0.6052
vn 0.1602 0.5002 0.8510
vn -0.8097 0.5152 -0.2810
vn -0.3483 0.2775 -0.8954
vn 0.6715 -0.6012 -0.4331
vn 0.4566 0.7632 0.4573
vn 0.2108 0.7979 0.5647
vn -0.3928 0.8892 -0.2347
vn -0.2048 0.8598 -0.4679
vn 0.4999 0.8356 -0.2276
usemtl Material.002
s off
f 1//1 2//1 3//1
f 2//2 1//2 6//2
f 1//3 3//3 4//3
f 1//4 4//4 5//4
f 1//5 5//5 6//5
f 2//6 6//6 11//6
f 3//7 2//7 7//7
f 4//8 3//8 8//8
f 5//9 4//9 9//9
f 6//10 5//10 10//10
f 2//11 11//11 7//11
f 3//12 7//12 8//12
f 4//13 8//13 9//13
f 5//14 9//14 10//14
f 6//15 10//15 11//15
f 7//16 11//16 12//16
f 8//17 7//17 12//17
f 9//18 8//18 12//18
f 10//19 9//19 12//19
f 11//20 10//20 12//20
